<?xml version="1.0" encoding="utf-8"?>
<!-- Generator: Adobe Illustrator 27.0.0, SVG Export Plug-In . SVG Version: 6.00 Build 0)  -->
<svg version="1.1" id="Capa_1" xmlns="http://www.w3.org/2000/svg" xmlns:xlink="http://www.w3.org/1999/xlink" x="0px" y="0px"
	 viewBox="0 0 431.47 493.01" style="enable-background:new 0 0 431.47 493.01;" xml:space="preserve">
<g>
	<g>
		<path d="M75.95,460.59H55.6v-21.23c0-1.72-0.86-2.58-2.58-2.58c-0.77,0-1.4,0.24-1.9,0.72s-0.74,1.1-0.74,1.87v21.23H28.54v-32.07
			h21.83v1.6c3.78-1.94,7.79-2.92,12.05-2.92c3.89,0,7.11,1.04,9.68,3.13c2.57,2.09,3.85,5.04,3.85,8.86V460.59z"/>
		<path d="M126.16,460.59H95.03c-3.67,0-6.69-1.03-9.08-3.08c-2.38-2.05-3.58-4.88-3.58-8.47c0-1.8,0.3-3.38,0.91-4.76
			s1.5-2.47,2.69-3.3c1.19-0.83,2.4-1.5,3.63-2.04c1.23-0.53,2.73-0.91,4.51-1.13c1.78-0.22,3.3-0.37,4.56-0.44
			c1.27-0.07,2.76-0.11,4.48-0.11v-0.88c0-1.8-1.38-2.69-4.12-2.69c-2.64,0-6.05,0.73-10.23,2.2l-2.09-6.27
			c5.39-1.8,11.99-2.7,19.8-2.7c1.94,0,3.92,0.15,5.94,0.44c2.02,0.29,4.12,0.8,6.3,1.51c2.18,0.71,3.96,1.81,5.33,3.3
			c1.38,1.48,2.06,3.27,2.06,5.36V460.59z M103.17,453.99v-9.74c-1.17,0.22-2.09,0.83-2.75,1.84c-0.66,1.01-0.99,2.14-0.99,3.38
			c0,1.25,0.32,2.31,0.96,3.19C101.04,453.55,101.96,453.99,103.17,453.99z"/>
		<path d="M202.56,460.59h-20.35v-22.44c0-1.28-0.66-1.92-1.98-1.92c-0.88,0-1.45,0.35-1.71,1.04v23.32h-20.41v-22.5
			c0-1.25-0.62-1.87-1.87-1.87c-1.25,0-1.87,0.61-1.87,1.82v22.55H132.6v-32.07h21.78v0.88c3.59-1.47,7.11-2.2,10.56-2.2
			c4.44,0,7.9,1.26,10.4,3.79c3.96-2.53,8.52-3.79,13.69-3.79c3.85,0,7.07,1.05,9.65,3.16c2.58,2.11,3.88,5.05,3.88,8.83V460.59z"/>
		<path d="M256.4,460.59h-20.35v-21.23c0-1.72-0.86-2.58-2.58-2.58c-0.77,0-1.4,0.24-1.9,0.72s-0.74,1.1-0.74,1.87v21.23h-21.83
			v-32.07h21.83v1.6c3.78-1.94,7.79-2.92,12.05-2.92c3.89,0,7.11,1.04,9.68,3.13c2.57,2.09,3.85,5.04,3.85,8.86V460.59z"/>
		<path d="M298.42,446.95h-15.51c0.4,4.58,2.92,6.88,7.54,6.88c1.8,0,4.38-0.4,7.75-1.21v6.82c-5.02,1.28-9.85,1.92-14.46,1.92
			c-3.34,0-6.35-0.5-9.05-1.51c-2.69-1.01-4.88-2.36-6.54-4.04c-1.67-1.69-2.94-3.56-3.82-5.61c-0.88-2.05-1.32-4.2-1.32-6.44
			c0-4.51,1.65-8.4,4.95-11.66c3.3-3.26,7.9-4.89,13.8-4.89c3.92,0,7.32,1,10.17,3c2.86,2,4.77,4.85,5.72,8.55
			C298.17,440.81,298.42,443.54,298.42,446.95z M289.62,440.35c-0.48-3.67-1.56-5.5-3.25-5.5c-1.83,0-2.95,1.83-3.36,5.5H289.62z"/>
		<path d="M336.54,429.68l-1.87,6.33c-0.4-0.11-1.01-0.17-1.81-0.17c-1.65,0-2.48,0.48-2.48,1.43c0,0.37,0.75,2.17,2.25,5.42
			c1.5,3.25,2.25,5.8,2.25,7.67c0,2.13-0.56,3.96-1.68,5.5c-1.12,1.54-2.61,2.7-4.48,3.47c-1.87,0.77-3.74,1.32-5.61,1.65
			s-3.79,0.5-5.78,0.5c-4.66,0-8.82-0.55-12.48-1.65l1.76-6.44c0.44,0.11,1.1,0.17,1.98,0.17s1.65-0.29,2.31-0.88
			c0.66-0.59,0.99-1.32,0.99-2.2c0-0.66-0.68-2.61-2.04-5.86s-2.04-5.66-2.04-7.23c0-2.2,0.67-4.1,2.01-5.69
			c1.34-1.59,2.95-2.74,4.84-3.44c1.89-0.7,3.91-1.04,6.08-1.04C325.67,427.21,330.93,428.03,336.54,429.68z"/>
		<path d="M364.81,426.38h-21.83v-9.13h21.83V426.38z M364.81,460.59h-21.83v-32.07h21.83V460.59z"/>
		<path d="M402.92,429.68l-1.87,6.33c-0.4-0.11-1.01-0.17-1.81-0.17c-1.65,0-2.48,0.48-2.48,1.43c0,0.37,0.75,2.17,2.25,5.42
			c1.5,3.25,2.25,5.8,2.25,7.67c0,2.13-0.56,3.96-1.68,5.5c-1.12,1.54-2.61,2.7-4.48,3.47c-1.87,0.77-3.74,1.32-5.61,1.65
			s-3.79,0.5-5.78,0.5c-4.66,0-8.82-0.55-12.48-1.65l1.76-6.44c0.44,0.11,1.1,0.17,1.98,0.17c0.88,0,1.65-0.29,2.31-0.88
			c0.66-0.59,0.99-1.32,0.99-2.2c0-0.66-0.68-2.61-2.04-5.86c-1.36-3.25-2.04-5.66-2.04-7.23c0-2.2,0.67-4.1,2.01-5.69
			c1.34-1.59,2.95-2.74,4.84-3.44c1.89-0.7,3.91-1.04,6.08-1.04C392.05,427.21,397.31,428.03,402.92,429.68z"/>
	</g>
	<path d="M28.54,315.21v83.97h72.51c3.13-16.32,3.64-32.36,1.34-48.1l17.62,5.56c1.39,14.1,0.68,28.29-1.7,42.54h17.39
		c1.54-12.38,1.84-24.83,0.7-37.37l18.6,5.87c0.23,10.7-0.41,21.18-1.67,31.5h17.13c0.78-8.68,1.21-17.43,0.93-26.33l17.87,5.64
		c-0.06,7.02-0.44,13.9-1.03,20.69h17.91c0.24-5.1,0.38-10.19,0.25-15.29l18.11,5.71c-0.09,3.2-0.39,6.38-0.6,9.57h89.26
		l-83.39-26.31l-0.05,0.16L55.97,318.21C46.35,315.17,37.22,314.24,28.54,315.21 M28.54,270.53v22.27
		c10.91-1.22,22.32-0.06,34.27,3.71l104.96,33.11l0.05-0.16l173.76,54.82c20.01,6.31,39.82,8.69,59.44,7.3v-22.32
		c-17.34,1.08-34.87-1.08-52.61-6.68l-104.96-33.11l-0.05,0.16L69.65,274.81C55.4,270.32,41.72,268.99,28.54,270.53 M28.54,226.15
		v22.32c15.66-1.99,31.64-0.5,47.94,4.65l104.96,33.11l0.05-0.16l173.75,54.82c15.48,4.88,30.73,6.84,45.77,6.07v-22.37
		c-12.77,0.51-25.74-1.23-38.93-5.4l-104.96-33.11l-0.05,0.16L83.32,231.42C64.74,225.56,46.48,223.87,28.54,226.15 M28.54,181.69
		v22.25c20.27-2.63,40.8-0.78,61.62,5.79l104.95,33.11l0.05-0.16l173.75,54.82c11.02,3.48,21.71,5.07,32.09,4.93v-22.48
		c-8.15-0.1-16.55-1.4-25.26-4.15L270.8,242.68l-0.05,0.16L97,188.02C73.91,180.74,51.1,178.71,28.54,181.69 M267.2,26.7H28.54
		v132.49c24.94-3.17,50.04-0.83,75.29,7.13l104.95,33.11l0.05-0.16l173.75,54.82c6.36,2.01,12.48,3.03,18.42,3.29V85.33
		c-5.2,1.21-10.04,3-14.46,5.51c-6.88,3.9-13.2,9.14-18.95,15.72c-5.75,6.58-10.67,13.81-14.77,21.68
		c-4.1,7.87-7.63,16.53-10.61,25.98c-7.22,22.9-9.24,45.24-6.05,67.01l-17.62-5.56c-2.18-22.11,0.28-44.42,7.37-66.92
		c4.56-14.46,10.44-27.57,17.64-39.33c7.2-11.76,15.67-21.84,25.41-30.25c9.17-7.92,19.89-13.17,32.04-15.94V41.08
		c-14.48,3.14-27.4,9.22-38.63,18.45c-11.86,9.73-22.25,21.52-31.2,35.38c-8.94,13.85-16.07,29.22-21.39,46.1
		c-7.22,22.9-9.76,46.06-7.64,69.49l-18.6-5.87c-0.5-24.01,2.73-47.07,9.69-69.17c6.27-19.89,14.7-37.99,25.32-54.3
		c10.61-16.31,22.9-29.99,36.88-41.04c6.81-5.39,14.11-9.84,21.84-13.41H342.8c-13.55,11.49-25.84,25.09-36.7,41.08
		c-12.54,18.46-22.33,38.84-29.36,61.14c-7.15,22.7-10.35,46.21-9.58,70.53l-17.87-5.64c0.2-25.12,3.79-48.73,10.75-70.82
		c10.95-34.76,27.38-64.7,49.29-89.81c1.96-2.25,3.98-4.36,5.99-6.49H291c-7.56,9.27-14.6,19.12-20.99,29.7
		c-11.61,19.2-20.8,39.54-27.58,61.04c-7.47,23.7-10.89,47.37-10.26,70.98l-18.11-5.71c0.66-24.31,4.7-48.21,12.11-71.72
		c7.66-24.31,17.89-47.09,30.68-68.35C260.16,37.15,263.61,31.85,267.2,26.7"/>
</g>
</svg>
